<?xml version="1.0" standalone="no"?>
<!DOCTYPE svg PUBLIC "-//W3C//DTD SVG 20010904//EN"
 "http://www.w3.org/TR/2001/REC-SVG-20010904/DTD/svg10.dtd">
<svg version="1.0" xmlns="http://www.w3.org/2000/svg"
 width="403.000000pt" height="403.000000pt" viewBox="0 0 403.000000 403.000000"
 preserveAspectRatio="xMidYMid meet">
<metadata>
Created by potrace 1.11, written by Peter Selinger 2001-2013
</metadata>
<g transform="translate(0.000000,403.000000) scale(0.100000,-0.100000)"
fill="#000000" stroke="none">
<path d="M1940 3972 c-59 -18 -61 -19 -90 -39 -13 -10 -21 -12 -16 -5 11 18
-8 14 -37 -8 -14 -11 -31 -20 -39 -20 -10 0 -10 2 2 10 8 5 11 12 8 16 -4 3
-22 -6 -39 -20 -18 -15 -35 -24 -38 -19 -9 12 -34 15 -26 3 6 -9 -7 -14 -27
-11 -5 0 -8 -3 -8 -8 0 -13 -68 -43 -81 -36 -5 4 -32 -15 -58 -43 -26 -27 -56
-52 -67 -56 -10 -3 -27 -19 -36 -35 -10 -19 -29 -33 -50 -39 -23 -6 -32 -14
-30 -25 2 -10 -4 -17 -13 -17 -8 0 -15 -9 -15 -19 0 -11 -5 -23 -10 -26 -6 -4
-8 -10 -5 -14 6 -10 -41 -66 -112 -134 -29 -27 -50 -54 -47 -59 3 -5 0 -16 -8
-25 -9 -12 -9 -15 0 -9 26 15 10 -7 -32 -47 -41 -39 -69 -97 -47 -97 5 0 9
-23 9 -51 1 -28 3 -54 6 -57 3 -3 2 -10 -3 -16 -16 -22 -20 -56 -5 -56 17 0
19 -17 2 -23 -10 -3 -10 -9 0 -26 9 -16 10 -32 3 -59 -11 -44 -11 -72 0 -72 5
0 6 -7 3 -15 -6 -16 6 -20 22 -7 5 4 1 -1 -9 -10 -20 -19 -4 -26 21 -10 15 10
25 58 16 74 -14 22 -14 89 0 116 7 15 17 38 21 52 7 23 7 24 -10 10 -17 -14
-17 -14 -5 7 8 12 18 19 22 17 4 -3 8 2 8 11 0 9 -4 14 -9 10 -12 -7 18 73 40
105 9 14 20 35 23 48 4 12 11 22 16 22 10 0 53 70 53 88 0 6 4 12 8 12 4 0 23
26 43 58 37 61 126 154 150 158 8 1 36 18 62 38 58 45 158 78 244 80 36 2 73
6 83 11 10 4 21 5 24 1 3 -3 12 -1 20 5 9 9 13 8 13 0 0 -6 11 -11 25 -11 14
0 25 -5 25 -11 0 -5 4 -8 8 -5 5 3 25 1 44 -5 20 -5 53 -11 75 -14 21 -2 52
-7 68 -9 17 -3 61 -8 98 -10 38 -3 72 -8 77 -11 4 -3 24 -7 44 -9 78 -10 104
-19 127 -40 14 -12 30 -21 37 -18 6 2 12 0 12 -5 0 -5 14 -17 30 -27 17 -9 28
-21 25 -27 -3 -5 0 -6 8 -3 8 3 18 1 22 -5 3 -6 0 -11 -7 -11 -7 0 0 -9 16
-19 16 -11 31 -26 32 -33 1 -7 9 -41 19 -76 14 -47 15 -66 6 -75 -6 -6 -11
-23 -11 -37 0 -15 -6 -40 -14 -56 -8 -16 -16 -51 -17 -77 -2 -26 -9 -53 -16
-59 -7 -6 -13 -17 -13 -25 0 -9 -7 -12 -17 -9 -22 6 -66 -46 -57 -67 4 -11 15
-14 40 -10 31 5 35 3 48 -28 14 -34 12 -54 -5 -43 -5 3 -7 9 -4 14 6 9 -25 23
-33 15 -3 -3 0 -5 6 -5 9 0 9 -4 1 -18 -10 -15 -16 -17 -35 -8 -12 6 -19 13
-14 16 5 3 -3 11 -16 17 -21 10 -23 9 -15 -1 9 -10 5 -13 -16 -13 -16 0 -48
-3 -73 -7 -25 -4 -61 -9 -81 -10 -20 -2 -46 -10 -58 -19 -13 -8 -30 -14 -39
-12 -9 1 -20 -3 -24 -9 -6 -8 -11 -6 -19 4 -9 12 -10 11 -6 -7 4 -16 1 -20
-11 -16 -11 5 -14 2 -10 -8 7 -18 -25 -41 -45 -33 -7 2 -23 24 -35 47 -18 37
-21 39 -22 17 -1 -14 -4 -34 -7 -45 -2 -11 -5 -28 -6 -37 -1 -15 -11 -18 -52
-18 -62 0 -95 9 -95 24 0 13 -57 59 -77 62 -6 1 -28 14 -47 29 -30 23 -36 25
-36 10 0 -11 -5 -15 -15 -11 -13 5 -14 2 -4 -17 11 -21 11 -21 -7 -6 -10 9
-27 15 -36 14 -10 -2 -20 1 -24 6 -3 5 -10 9 -15 9 -6 0 -7 -5 -3 -12 5 -8 0
-9 -15 -5 -15 4 -24 -1 -32 -15 -6 -11 -17 -17 -25 -14 -9 3 -12 1 -9 -4 3 -6
-3 -10 -15 -10 -12 0 -19 -4 -16 -9 4 -5 -3 -7 -14 -4 -11 3 -20 1 -20 -4 0
-5 -12 -10 -27 -11 -16 -1 -39 -4 -53 -7 -14 -3 -56 -10 -95 -15 -98 -15 -115
-28 -115 -90 0 -29 -5 -50 -11 -50 -6 0 -10 16 -9 38 3 55 1 64 -10 57 -5 -3
-11 -23 -11 -43 -1 -20 -3 -29 -6 -20 -2 10 -10 15 -19 11 -19 -7 -49 -63 -45
-85 1 -10 -3 -18 -9 -18 -7 0 -10 16 -8 43 2 23 -1 43 -7 44 -6 1 -9 -26 -8
-70 3 -67 5 -74 35 -99 l32 -27 18 29 c15 26 34 35 60 31 15 -2 8 26 -11 43
-23 21 -46 12 -84 -33 -20 -24 -26 -27 -31 -15 -10 27 -7 37 8 25 8 -7 16 -8
18 -4 2 4 20 23 40 42 35 32 38 33 60 19 17 -11 29 -36 42 -89 27 -108 51
-154 90 -173 54 -25 167 -38 315 -34 77 2 137 0 134 -4 -2 -5 3 -8 12 -8 35 0
118 119 155 221 35 97 110 132 149 68 16 -26 18 -44 14 -104 -5 -65 -3 -74 16
-92 14 -13 19 -27 15 -39 -5 -16 -4 -16 5 -4 6 8 11 13 12 10 5 -28 4 -50 -3
-50 -4 0 -8 -10 -8 -22 0 -41 -42 -102 -77 -111 -17 -5 -36 -20 -43 -32 -11
-20 -9 -28 15 -59 15 -20 28 -46 29 -59 1 -17 6 -23 19 -19 9 2 18 -1 18 -7 1
-6 3 -14 4 -18 2 -5 6 -18 10 -31 5 -14 13 -21 21 -18 8 3 14 2 14 -3 0 -5 16
-19 35 -32 19 -13 35 -31 35 -40 0 -14 -7 -15 -41 -9 -37 7 -55 4 -110 -16 -9
-3 -21 -15 -26 -26 -8 -19 -11 -19 -23 -6 -12 12 -18 13 -40 1 -14 -7 -58 -13
-102 -13 -42 0 -80 -5 -83 -10 -4 -7 12 -8 48 -4 61 7 287 -13 301 -26 25 -24
-79 -80 -148 -80 -41 0 -74 -19 -49 -27 8 -3 7 -14 -2 -37 -14 -33 -10 -80 6
-70 5 3 9 1 9 -3 0 -12 125 -9 142 3 7 5 27 9 45 8 20 -1 34 3 37 13 3 8 11
11 17 7 6 -3 15 0 20 7 6 10 9 3 9 -21 0 -19 2 -52 4 -72 3 -23 1 -38 -5 -38
-16 0 -39 -27 -39 -45 0 -15 -1 -15 -16 -1 -14 14 -18 14 -39 -2 -14 -9 -25
-23 -25 -30 0 -7 -5 -10 -12 -6 -7 4 -8 3 -4 -4 4 -7 1 -21 -8 -33 l-14 -21
-11 21 c-11 19 -12 20 -30 3 -9 -9 -16 -22 -13 -29 4 -13 -28 -11 -50 3 -8 5
-9 2 -5 -9 4 -11 1 -17 -9 -17 -8 0 -14 6 -13 12 4 37 -4 38 -16 3 -9 -29 -13
-34 -14 -17 -1 13 -5 20 -11 17 -5 -3 -10 -1 -10 6 0 8 -4 8 -15 -1 -12 -10
-15 -9 -15 5 0 25 -28 1 -32 -28 -2 -12 -7 -20 -12 -19 -5 2 -13 -2 -17 -10
-13 -19 -11 -28 5 -22 16 6 30 -22 15 -31 -5 -4 -8 -3 -7 2 4 10 -5 13 -32 13
-11 0 -20 -5 -20 -11 0 -6 9 -9 20 -6 11 3 18 1 14 -4 -3 -5 1 -9 8 -9 11 0
10 -2 0 -9 -11 -7 -10 -10 3 -15 23 -8 27 -8 20 4 -3 6 -2 10 3 10 6 0 12 -7
15 -14 3 -8 22 -18 42 -22 26 -5 33 -9 23 -15 -10 -7 -9 -9 5 -9 10 0 16 -4
13 -8 -3 -5 11 -15 30 -23 37 -14 57 -42 69 -96 5 -24 3 -33 -6 -33 -8 0 -3
-7 9 -16 18 -12 20 -19 12 -29 -18 -22 21 -24 57 -3 22 13 33 15 38 7 6 -8 10
-8 15 2 7 10 11 10 24 0 18 -15 40 -5 32 15 -4 10 3 14 25 14 18 0 28 -4 24
-10 -3 -6 1 -13 10 -16 10 -4 12 -10 6 -18 -5 -6 -8 -22 -7 -36 1 -15 -8 -34
-22 -48 -19 -18 -20 -22 -6 -22 13 0 14 -3 5 -13 -6 -8 -8 -16 -5 -19 6 -7
-49 -48 -63 -48 -11 0 -93 -80 -93 -90 0 -4 -11 -20 -25 -36 -14 -16 -31 -41
-38 -56 -7 -17 -20 -28 -32 -28 -11 0 -30 -7 -42 -15 l-21 -14 18 35 c19 36
20 101 3 113 -5 3 -13 14 -16 24 -4 10 -13 17 -20 14 -6 -2 -27 9 -45 24 -17
16 -65 45 -106 64 -40 20 -102 60 -136 89 -45 38 -69 52 -83 48 -14 -3 -18 -1
-13 7 4 6 12 9 17 6 14 -9 11 6 -5 24 -7 9 -28 43 -46 76 -50 90 -53 95 -73
95 -10 0 -15 5 -12 10 4 6 10 8 14 6 4 -3 -21 50 -56 117 -58 114 -87 189 -95
246 -3 21 -6 18 -35 -26 -18 -28 -33 -55 -33 -61 0 -6 -13 -13 -29 -17 -16 -3
-32 -13 -35 -21 -3 -8 -13 -14 -23 -14 -22 0 -129 -87 -125 -101 1 -6 -2 -8
-8 -4 -6 4 -16 2 -23 -3 -7 -5 -52 -22 -102 -36 -49 -15 -115 -37 -145 -48
-30 -11 -80 -24 -110 -28 -54 -8 -178 -38 -254 -60 -30 -9 -36 -14 -25 -22 11
-8 10 -9 -4 -4 -11 4 -47 -10 -90 -33 -40 -22 -88 -42 -107 -46 -19 -4 -38
-13 -42 -19 -6 -8 -8 -7 -8 2 0 12 -15 11 -72 -5 -16 -4 -17 -27 -17 -274 -1
-174 3 -268 9 -264 6 3 10 2 10 -4 0 -5 -4 -13 -10 -16 -6 -4 -10 -71 -10
-168 0 -142 2 -159 14 -141 13 17 15 18 21 2 6 -16 42 -17 483 -17 432 1 477
2 489 17 11 16 12 16 13 0 0 -16 21 -17 267 -17 193 0 270 4 276 12 6 9 10 9
14 0 6 -17 99 -17 107 0 5 9 7 9 12 0 4 -10 184 -13 850 -13 555 0 843 4 839
10 -3 6 -1 10 4 10 6 0 11 -4 11 -10 0 -6 121 -9 315 -10 l315 0 0 290 c0 159
-4 290 -9 290 -4 0 -28 16 -52 35 -24 19 -50 35 -56 35 -7 0 -13 4 -13 9 0 13
-248 108 -320 122 -36 6 -81 20 -100 29 -19 10 -93 38 -165 63 -295 102 -367
134 -408 182 -30 35 -87 66 -156 85 -36 9 -39 14 -75 107 -21 54 -38 108 -38
120 0 12 12 46 26 77 14 30 26 58 26 61 0 4 18 37 40 74 39 66 53 120 28 105
-8 -4 -10 -3 -5 2 5 5 14 9 19 9 6 0 21 36 33 80 17 63 27 83 47 94 40 23 65
81 115 266 29 108 48 321 31 343 -8 9 -26 12 -49 10 -25 -2 -35 0 -32 9 2 6 0
21 -6 32 -14 25 -3 80 11 59 6 -9 7 -3 4 17 -10 51 -9 117 2 180 6 33 10 115
9 183 -1 67 2 122 6 122 5 0 5 6 1 12 -5 7 -9 19 -10 28 -7 51 -18 78 -40 101
-23 24 -34 56 -15 45 4 -3 1 10 -8 29 -9 20 -23 34 -34 35 -13 0 -16 6 -12 23
7 32 -18 61 -45 52 -19 -6 -21 -4 -16 13 4 13 1 22 -9 26 -9 3 -15 18 -15 37
0 37 -25 70 -46 62 -8 -3 -14 0 -14 7 0 6 5 8 11 4 7 -4 10 -1 7 7 -3 8 -23
23 -46 34 -23 11 -42 24 -42 28 0 9 -82 91 -92 91 -11 1 -53 50 -51 58 2 4 -4
5 -12 2 -18 -7 -20 7 -3 24 8 8 9 12 1 12 -6 0 -13 -5 -15 -11 -2 -6 -21 12
-43 40 -37 47 -64 68 -50 39 3 -7 -2 -3 -11 10 -9 12 -22 22 -29 22 -7 0 -33
11 -56 25 -42 23 -81 36 -49 15 23 -15 5 -12 -61 10 -67 23 -129 23 -199 2z
m-225 -1170 c-8 -8 -25 10 -19 20 4 6 9 5 15 -3 4 -7 6 -15 4 -17z m-100 -62
c24 -6 26 -8 8 -9 -13 0 -23 -5 -23 -9 0 -5 -10 -14 -22 -19 -18 -8 -11 -9 30
-5 42 4 52 2 52 -11 0 -9 -13 -17 -36 -22 -32 -6 -154 -61 -154 -70 0 -6 45 8
66 22 23 15 34 9 34 -18 0 -29 29 -49 70 -49 32 0 43 5 57 28 9 15 18 29 20
31 7 10 31 -22 26 -35 -4 -11 4 -14 32 -14 32 0 37 3 32 19 -3 11 1 22 8 25 9
3 14 21 13 46 0 35 -3 40 -19 35 -23 -8 -24 -2 -3 19 14 15 12 16 -18 17 -18
1 -25 3 -16 6 34 9 130 -18 156 -44 22 -22 24 -31 19 -81 -10 -109 -82 -253
-142 -281 -41 -20 -246 -27 -342 -11 -93 15 -128 31 -147 69 -20 38 -36 140
-36 232 0 106 13 115 185 129 115 9 115 9 150 0z m1133 -35 c78 -24 86 -41 72
-161 -15 -125 -42 -199 -80 -219 -41 -21 -203 -38 -295 -31 -86 7 -168 26
-147 33 10 4 10 7 -2 17 -18 14 -10 76 10 76 16 0 37 36 29 50 -3 5 5 16 17
24 12 9 19 16 14 16 -5 0 -3 7 4 15 13 15 73 18 64 3 -3 -4 -3 -8 0 -8 2 0 12
-3 20 -6 12 -5 15 -2 10 10 -5 14 -1 16 21 12 37 -7 44 -16 14 -17 -22 -1 -21
-2 6 -10 29 -9 86 -6 119 7 12 4 16 0 16 -15 0 -19 51 -81 66 -81 16 0 36 34
32 55 -3 13 -2 22 2 20 5 -3 11 2 14 11 4 9 9 14 13 11 14 -15 33 18 33 56 0
32 -3 38 -12 29 -19 -19 -38 -14 -38 11 0 13 -3 27 -7 31 -8 8 -9 13 -12 40 0
8 -18 18 -38 24 -22 6 -29 10 -17 11 11 1 44 -6 72 -14z m-1137 -93 c-6 -2 -8
-9 -5 -14 4 -7 2 -8 -4 -4 -7 4 -12 16 -12 28 0 18 2 19 16 7 10 -8 12 -15 5
-17z m755 -39 c-8 -8 -36 10 -36 25 0 13 3 12 20 -3 11 -10 18 -20 16 -22z
m503 -220 c-1 -51 -2 -54 -10 -28 -8 27 -4 85 7 85 2 0 4 -26 3 -57z m-2 -95
c-3 -7 -5 -2 -5 12 0 14 2 19 5 13 2 -7 2 -19 0 -25z m-204 5 c-13 -2 -23 -9
-23 -14 0 -6 -4 -8 -9 -4 -5 3 -12 1 -16 -5 -4 -7 -12 -7 -25 0 -10 5 -31 10
-47 9 l-28 -1 28 -8 c41 -13 57 -29 57 -60 0 -15 6 -33 14 -39 15 -12 12 -67
-5 -87 -4 -5 -6 -20 -2 -32 3 -12 1 -28 -5 -35 -7 -8 -7 -18 -2 -27 6 -9 3
-18 -8 -26 -14 -10 -15 -16 -5 -32 9 -16 8 -24 -4 -42 -9 -13 -13 -32 -10 -50
6 -29 -12 -57 -28 -42 -5 4 -5 -1 -2 -11 4 -11 4 -24 0 -30 -4 -7 -8 -19 -8
-27 0 -8 -5 -14 -12 -13 -7 2 -10 -4 -6 -13 3 -9 1 -19 -6 -23 -7 -4 -13 -17
-14 -28 0 -13 -6 -19 -14 -16 -7 3 -13 -2 -13 -11 0 -9 -6 -16 -14 -16 -8 0
-22 -3 -31 -7 -14 -5 -16 -2 -10 18 4 16 3 20 -3 10 -11 -16 -27 3 -16 20 5 8
-5 9 -33 4 -39 -6 -40 -6 -41 24 0 21 4 31 14 31 9 0 12 5 8 12 -5 7 -2 9 9 5
10 -4 14 -2 11 6 -2 7 3 13 13 13 10 1 26 4 35 8 13 6 19 2 24 -18 3 -14 11
-26 16 -26 6 0 8 7 4 15 -7 18 5 20 23 3 10 -11 12 -10 11 2 -5 32 1 50 14 50
18 0 31 49 17 63 -8 8 -11 6 -11 -6 0 -9 -4 -17 -10 -17 -5 0 -7 13 -4 30 9
42 -2 66 -21 50 -13 -10 -15 -8 -15 14 0 28 -18 34 -39 14 -11 -11 -12 -9 -7
9 5 17 1 26 -19 39 -32 21 -51 54 -37 63 7 4 5 26 -5 66 -9 33 -16 76 -17 95
-1 31 2 35 24 33 50 -3 87 -10 98 -17 7 -4 12 -3 12 2 0 5 10 14 23 20 14 7
16 11 7 11 -12 1 -13 3 -1 10 10 6 5 11 -20 17 -33 8 -32 9 21 14 69 6 193 9
163 3z m-263 -337 c0 -15 -47 -28 -55 -16 -4 7 16 18 53 29 1 1 2 -5 2 -13z
m220 -6 c0 -5 -4 -10 -10 -10 -5 0 -10 5 -10 10 0 6 5 10 10 10 6 0 10 -4 10
-10z m117 -292 c-3 -7 -5 -2 -5 12 0 14 2 19 5 13 2 -7 2 -19 0 -25z m-600
-40 c-3 -8 -6 -5 -6 6 -1 11 2 17 5 13 3 -3 4 -12 1 -19z m585 0 c-7 -7 -12
-8 -12 -2 0 14 12 26 19 19 2 -3 -1 -11 -7 -17z m-712 -11 c0 -8 -3 -8 -9 1
-6 10 -10 8 -15 -10 -5 -14 -9 -18 -13 -10 -6 15 16 44 28 36 5 -3 9 -11 9
-17z m-790 -337 c0 -5 -4 -10 -10 -10 -5 0 -10 5 -10 10 0 6 5 10 10 10 6 0
10 -4 10 -10z m683 -15 c-3 -9 -8 -14 -10 -11 -3 3 -2 9 2 15 9 16 15 13 8 -4z
m-549 -36 c-3 -5 -10 -7 -15 -3 -5 3 -7 10 -3 15 3 5 10 7 15 3 5 -3 7 -10 3
-15z m-394 -93 c0 -3 -4 -8 -10 -11 -5 -3 -10 -1 -10 4 0 6 5 11 10 11 6 0 10
-2 10 -4z m410 -6 c0 -5 -4 -10 -10 -10 -5 0 -10 5 -10 10 0 6 5 10 10 10 6 0
10 -4 10 -10z m-380 -60 c0 -5 -4 -10 -10 -10 -5 0 -10 5 -10 10 0 6 5 10 10
10 6 0 10 -4 10 -10z m340 -30 c0 -5 -4 -10 -10 -10 -5 0 -10 5 -10 10 0 6 5
10 10 10 6 0 10 -4 10 -10z m-410 -10 c0 -5 -4 -10 -10 -10 -5 0 -10 5 -10 10
0 6 5 10 10 10 6 0 10 -4 10 -10z m-410 -10 c0 -5 -5 -10 -11 -10 -5 0 -7 5
-4 10 3 6 8 10 11 10 2 0 4 -4 4 -10z m280 -6 c0 -8 -5 -12 -10 -9 -6 4 -8 11
-5 16 9 14 15 11 15 -7z m600 12 c0 -3 -4 -8 -10 -11 -5 -3 -10 -1 -10 4 0 6
5 11 10 11 6 0 10 -2 10 -4z m-730 -16 c0 -5 -4 -10 -10 -10 -5 0 -10 5 -10
10 0 6 5 10 10 10 6 0 10 -4 10 -10z m790 0 c0 -5 -7 -10 -16 -10 -8 0 -12 5
-9 10 3 6 10 10 16 10 5 0 9 -4 9 -10z m-470 -30 c0 -5 -5 -10 -11 -10 -5 0
-7 5 -4 10 3 6 8 10 11 10 2 0 4 -4 4 -10z m300 -10 c0 -5 -4 -10 -10 -10 -5
0 -10 5 -10 10 0 6 5 10 10 10 6 0 10 -4 10 -10z m-685 -10 c3 -5 1 -10 -4
-10 -6 0 -11 5 -11 10 0 6 2 10 4 10 3 0 8 -4 11 -10z m135 1 c0 -6 -4 -13
-10 -16 -5 -3 -10 1 -10 9 0 9 5 16 10 16 6 0 10 -4 10 -9z m130 -1 c0 -5 -4
-10 -10 -10 -5 0 -10 5 -10 10 0 6 5 10 10 10 6 0 10 -4 10 -10z m-390 -10 c0
-5 -4 -10 -10 -10 -5 0 -10 5 -10 10 0 6 5 10 10 10 6 0 10 -4 10 -10z m450
-40 c0 -5 -4 -10 -10 -10 -5 0 -10 5 -10 10 0 6 5 10 10 10 6 0 10 -4 10 -10z
m-520 -10 c0 -5 -5 -10 -11 -10 -5 0 -7 5 -4 10 3 6 8 10 11 10 2 0 4 -4 4
-10z m135 0 c-3 -5 -11 -10 -16 -10 -6 0 -7 5 -4 10 3 6 11 10 16 10 6 0 7 -4
4 -10z m665 0 c0 -5 -5 -10 -11 -10 -5 0 -7 5 -4 10 3 6 8 10 11 10 2 0 4 -4
4 -10z m285 1 c3 -5 1 -12 -5 -16 -5 -3 -10 1 -10 9 0 18 6 21 15 7z m-820
-11 c-3 -5 -10 -10 -16 -10 -5 0 -9 5 -9 10 0 6 7 10 16 10 8 0 12 -4 9 -10z
m135 0 c0 -5 -4 -10 -10 -10 -5 0 -10 5 -10 10 0 6 5 10 10 10 6 0 10 -4 10
-10z m170 -20 c0 -5 -5 -10 -11 -10 -5 0 -7 5 -4 10 3 6 8 10 11 10 2 0 4 -4
4 -10z m-640 -20 c0 -5 -4 -10 -10 -10 -5 0 -10 5 -10 10 0 6 5 10 10 10 6 0
10 -4 10 -10z m1000 0 c0 -5 -5 -10 -11 -10 -5 0 -7 5 -4 10 3 6 8 10 11 10 2
0 4 -4 4 -10z m-1130 -4 c0 -3 -4 -8 -10 -11 -5 -3 -10 -1 -10 4 0 6 5 11 10
11 6 0 10 -2 10 -4z m270 -6 c0 -5 -4 -10 -10 -10 -5 0 -10 5 -10 10 0 6 5 10
10 10 6 0 10 -4 10 -10z m390 0 c0 -5 -4 -10 -10 -10 -5 0 -10 5 -10 10 0 6 5
10 10 10 6 0 10 -4 10 -10z m-130 -10 c0 -5 -4 -10 -10 -10 -5 0 -10 5 -10 10
0 6 5 10 10 10 6 0 10 -4 10 -10z m652 -12 c-7 -7 -12 -8 -12 -2 0 14 12 26
19 19 2 -3 -1 -11 -7 -17z m68 -8 c0 -5 -4 -10 -10 -10 -5 0 -10 5 -10 10 0 6
5 10 10 10 6 0 10 -4 10 -10z m-1050 -10 c0 -5 -4 -10 -10 -10 -5 0 -10 5 -10
10 0 6 5 10 10 10 6 0 10 -4 10 -10z m1130 0 c0 -5 -4 -10 -10 -10 -5 0 -10 5
-10 10 0 6 5 10 10 10 6 0 10 -4 10 -10z m-995 -10 c-3 -5 -10 -10 -16 -10 -5
0 -9 5 -9 10 0 6 7 10 16 10 8 0 12 -4 9 -10z m385 0 c0 -5 -4 -10 -10 -10 -5
0 -10 5 -10 10 0 6 5 10 10 10 6 0 10 -4 10 -10z m695 0 c-3 -5 -10 -10 -16
-10 -5 0 -9 5 -9 10 0 6 7 10 16 10 8 0 12 -4 9 -10z m-955 -10 c0 -5 -5 -10
-11 -10 -5 0 -7 5 -4 10 3 6 8 10 11 10 2 0 4 -4 4 -10z m140 -10 c0 -5 -4
-10 -10 -10 -5 0 -10 5 -10 10 0 6 5 10 10 10 6 0 10 -4 10 -10z m-610 -20 c0
-5 -4 -10 -10 -10 -5 0 -10 5 -10 10 0 6 5 10 10 10 6 0 10 -4 10 -10z m135 0
c3 -5 1 -10 -4 -10 -6 0 -11 5 -11 10 0 6 2 10 4 10 3 0 8 -4 11 -10z m645 1
c0 -6 -4 -13 -10 -16 -5 -3 -10 1 -10 9 0 9 5 16 10 16 6 0 10 -4 10 -9z
m2280 5 c0 -3 -4 -8 -10 -11 -5 -3 -10 -1 -10 4 0 6 5 11 10 11 6 0 10 -2 10
-4z m-3193 -22 c-3 -3 -12 -4 -19 -1 -8 3 -5 6 6 6 11 1 17 -2 13 -5z m413 2
c0 -11 -19 -15 -25 -6 -3 5 1 10 9 10 9 0 16 -2 16 -4z m260 -16 c0 -5 -4 -10
-10 -10 -5 0 -10 5 -10 10 0 6 5 10 10 10 6 0 10 -4 10 -10z m135 0 c3 -5 1
-10 -4 -10 -6 0 -11 5 -11 10 0 6 2 10 4 10 3 0 8 -4 11 -10z m665 1 c0 -6 -4
-13 -10 -16 -5 -3 -10 1 -10 9 0 9 5 16 10 16 6 0 10 -4 10 -9z m-1280 -21 c0
-5 -4 -10 -10 -10 -5 0 -10 5 -10 10 0 6 5 10 10 10 6 0 10 -4 10 -10z m1340
-6 c0 -8 -4 -12 -10 -9 -5 3 -10 10 -10 16 0 5 5 9 10 9 6 0 10 -7 10 -16z
m-1480 -4 c0 -5 -2 -10 -4 -10 -3 0 -8 5 -11 10 -3 6 -1 10 4 10 6 0 11 -4 11
-10z m280 0 c0 -5 -5 -10 -11 -10 -5 0 -7 5 -4 10 3 6 8 10 11 10 2 0 4 -4 4
-10z m140 -10 c0 -5 -4 -10 -10 -10 -5 0 -10 5 -10 10 0 6 5 10 10 10 6 0 10
-4 10 -10z m1254 -12 c22 -31 20 -64 -4 -88 -40 -40 -100 -13 -100 43 0 62 71
92 104 45z m-864 2 c0 -5 -4 -10 -10 -10 -5 0 -10 5 -10 10 0 6 5 10 10 10 6
0 10 -4 10 -10z m-260 -10 c0 -5 -4 -10 -10 -10 -5 0 -10 5 -10 10 0 6 5 10
10 10 6 0 10 -4 10 -10z m530 0 c0 -5 -2 -10 -4 -10 -3 0 -8 5 -11 10 -3 6 -1
10 4 10 6 0 11 -4 11 -10z m180 0 c0 -5 -4 -10 -10 -10 -5 0 -10 5 -10 10 0 6
5 10 10 10 6 0 10 -4 10 -10z m-1195 -10 c3 -5 -1 -10 -10 -10 -9 0 -13 5 -10
10 3 6 8 10 10 10 2 0 7 -4 10 -10z m625 0 c0 -5 -4 -10 -10 -10 -5 0 -10 5
-10 10 0 6 5 10 10 10 6 0 10 -4 10 -10z m-760 -10 c0 -5 -4 -10 -10 -10 -5 0
-10 5 -10 10 0 6 5 10 10 10 6 0 10 -4 10 -10z m275 1 c3 -5 1 -12 -5 -16 -5
-3 -10 1 -10 9 0 18 6 21 15 7z m1115 -1 c0 -5 -4 -10 -10 -10 -5 0 -10 5 -10
10 0 6 5 10 10 10 6 0 10 -4 10 -10z m60 -9 c0 -6 -4 -13 -10 -16 -5 -3 -10 1
-10 9 0 9 5 16 10 16 6 0 10 -4 10 -9z m1760 5 c0 -3 -4 -8 -10 -11 -5 -3 -10
-1 -10 4 0 6 5 11 10 11 6 0 10 -2 10 -4z m-2790 -16 c0 -5 -4 -10 -10 -10 -5
0 -10 5 -10 10 0 6 5 10 10 10 6 0 10 -4 10 -10z m130 0 c0 -5 -5 -10 -11 -10
-5 0 -7 5 -4 10 3 6 8 10 11 10 2 0 4 -4 4 -10z m1280 0 c0 -5 -7 -10 -16 -10
-8 0 -12 5 -9 10 3 6 10 10 16 10 5 0 9 -4 9 -10z m1640 0 c0 -5 -4 -10 -10
-10 -5 0 -10 5 -10 10 0 6 5 10 10 10 6 0 10 -4 10 -10z m-2390 -4 c0 -3 -4
-8 -10 -11 -5 -3 -10 -1 -10 4 0 6 5 11 10 11 6 0 10 -2 10 -4z m130 -6 c0 -5
-5 -10 -11 -10 -5 0 -7 5 -4 10 3 6 8 10 11 10 2 0 4 -4 4 -10z m310 0 c0 -5
-5 -10 -11 -10 -5 0 -7 5 -4 10 3 6 8 10 11 10 2 0 4 -4 4 -10z m-835 -10 c3
-5 -1 -10 -10 -10 -9 0 -13 5 -10 10 3 6 8 10 10 10 2 0 7 -4 10 -10z m135 0
c0 -5 -4 -10 -10 -10 -5 0 -10 5 -10 10 0 6 5 10 10 10 6 0 10 -4 10 -10z
m-760 -10 c0 -5 -4 -10 -10 -10 -5 0 -10 5 -10 10 0 6 5 10 10 10 6 0 10 -4
10 -10z m140 -10 c0 -5 -4 -10 -10 -10 -5 0 -10 5 -10 10 0 6 5 10 10 10 6 0
10 -4 10 -10z m2935 0 c3 -5 1 -10 -4 -10 -6 0 -11 5 -11 10 0 6 2 10 4 10 3
0 8 -4 11 -10z m-2790 -10 c3 -5 -1 -10 -10 -10 -9 0 -13 5 -10 10 3 6 8 10
10 10 2 0 7 -4 10 -10z m131 -17 c-10 -10 -19 5 -10 18 6 11 8 11 12 0 2 -7 1
-15 -2 -18z m514 17 c0 -5 -4 -10 -10 -10 -5 0 -10 5 -10 10 0 6 5 10 10 10 6
0 10 -4 10 -10z m320 6 c0 -3 -4 -8 -10 -11 -5 -3 -10 -1 -10 4 0 6 5 11 10
11 6 0 10 -2 10 -4z m-170 -22 c0 -8 -5 -12 -10 -9 -6 4 -8 11 -5 16 9 14 15
11 15 -7z m2270 12 c0 -3 -4 -8 -10 -11 -5 -3 -10 -1 -10 4 0 6 5 11 10 11 6
0 10 -2 10 -4z m-2800 -22 c0 -8 -5 -12 -10 -9 -6 4 -8 11 -5 16 9 14 15 11
15 -7z m750 6 c0 -5 -4 -10 -10 -10 -5 0 -10 5 -10 10 0 6 5 10 10 10 6 0 10
-4 10 -10z m-480 -4 c0 -3 -4 -8 -10 -11 -5 -3 -10 -1 -10 4 0 6 5 11 10 11 6
0 10 -2 10 -4z m-750 -16 c0 -5 -4 -10 -10 -10 -5 0 -10 5 -10 10 0 6 5 10 10
10 6 0 10 -4 10 -10z m620 0 c0 -5 -4 -10 -10 -10 -5 0 -10 5 -10 10 0 6 5 10
10 10 6 0 10 -4 10 -10z m680 0 c0 -5 -4 -10 -10 -10 -5 0 -10 5 -10 10 0 6 5
10 10 10 6 0 10 -4 10 -10z m2050 0 c0 -5 -2 -10 -4 -10 -3 0 -8 5 -11 10 -3
6 -1 10 4 10 6 0 11 -4 11 -10z m440 0 c0 -5 -2 -10 -4 -10 -3 0 -8 5 -11 10
-3 6 -1 10 4 10 6 0 11 -4 11 -10z m-2426 -21 c-3 -5 -10 -7 -15 -3 -5 3 -7
10 -3 15 3 5 10 7 15 3 5 -3 7 -10 3 -15z m2116 11 c0 -5 -4 -10 -10 -10 -5 0
-10 5 -10 10 0 6 5 10 10 10 6 0 10 -4 10 -10z m-3340 -10 c0 -5 -4 -10 -10
-10 -5 0 -10 5 -10 10 0 6 5 10 10 10 6 0 10 -4 10 -10z m1490 0 c0 -5 -5 -10
-11 -10 -5 0 -7 5 -4 10 3 6 8 10 11 10 2 0 4 -4 4 -10z m-1350 -10 c0 -5 -4
-10 -10 -10 -5 0 -10 5 -10 10 0 6 5 10 10 10 6 0 10 -4 10 -10z m510 0 c0 -5
-5 -10 -11 -10 -5 0 -7 5 -4 10 3 6 8 10 11 10 2 0 4 -4 4 -10z m284 -11 c-3
-5 -10 -7 -15 -3 -5 3 -7 10 -3 15 3 5 10 7 15 3 5 -3 7 -10 3 -15z m-1154 -9
c0 -5 -5 -10 -11 -10 -5 0 -7 5 -4 10 3 6 8 10 11 10 2 0 4 -4 4 -10z m625 0
c3 -5 1 -10 -4 -10 -6 0 -11 5 -11 10 0 6 2 10 4 10 3 0 8 -4 11 -10z m139
-11 c-3 -5 -10 -7 -15 -3 -5 3 -7 10 -3 15 3 5 10 7 15 3 5 -3 7 -10 3 -15z
m466 11 c0 -5 -2 -10 -4 -10 -3 0 -8 5 -11 10 -3 6 -1 10 4 10 6 0 11 -4 11
-10z m470 -4 c0 -3 -4 -8 -10 -11 -5 -3 -10 -1 -10 4 0 6 5 11 10 11 6 0 10
-2 10 -4z m1670 0 c0 -11 -19 -15 -25 -6 -3 5 1 10 9 10 9 0 16 -2 16 -4z
m-3230 -16 c0 -5 -5 -10 -11 -10 -5 0 -7 5 -4 10 3 6 8 10 11 10 2 0 4 -4 4
-10z m1150 0 c0 -5 -2 -10 -4 -10 -3 0 -8 5 -11 10 -3 6 -1 10 4 10 6 0 11 -4
11 -10z m-1006 -21 c-3 -5 -10 -7 -15 -3 -5 3 -7 10 -3 15 3 5 10 7 15 3 5 -3
7 -10 3 -15z m2416 11 c0 -5 -5 -10 -11 -10 -5 0 -7 5 -4 10 3 6 8 10 11 10 2
0 4 -4 4 -10z m1060 0 c0 -5 -2 -10 -4 -10 -3 0 -8 5 -11 10 -3 6 -1 10 4 10
6 0 11 -4 11 -10z m-3340 -10 c0 -5 -4 -10 -10 -10 -5 0 -10 5 -10 10 0 6 5
10 10 10 6 0 10 -4 10 -10z m510 0 c0 -5 -4 -10 -10 -10 -5 0 -10 5 -10 10 0
6 5 10 10 10 6 0 10 -4 10 -10z m430 0 c0 -5 -4 -10 -10 -10 -5 0 -10 5 -10
10 0 6 5 10 10 10 6 0 10 -4 10 -10z m2530 0 c0 -5 -2 -10 -4 -10 -3 0 -8 5
-11 10 -3 6 -1 10 4 10 6 0 11 -4 11 -10z m-2805 -10 c3 -5 1 -10 -4 -10 -6 0
-11 5 -11 10 0 6 2 10 4 10 3 0 8 -4 11 -10z m135 0 c0 -5 -4 -10 -10 -10 -5
0 -10 5 -10 10 0 6 5 10 10 10 6 0 10 -4 10 -10z m1540 0 c0 -5 -5 -10 -11
-10 -5 0 -7 5 -4 10 3 6 8 10 11 10 2 0 4 -4 4 -10z m-2200 -4 c0 -3 -4 -8
-10 -11 -5 -3 -10 -1 -10 4 0 6 5 11 10 11 6 0 10 -2 10 -4z m270 -6 c0 -5 -7
-10 -16 -10 -8 0 -12 5 -9 10 3 6 10 10 16 10 5 0 9 -4 9 -10z m-765 -10 c3
-5 1 -10 -4 -10 -6 0 -11 5 -11 10 0 6 2 10 4 10 3 0 8 -4 11 -10z m635 0 c0
-5 -4 -10 -9 -10 -6 0 -13 5 -16 10 -3 6 1 10 9 10 9 0 16 -4 16 -10z m2320 0
c0 -5 -2 -10 -4 -10 -3 0 -8 5 -11 10 -3 6 -1 10 4 10 6 0 11 -4 11 -10z m140
0 c0 -5 -2 -10 -4 -10 -3 0 -8 5 -11 10 -3 6 -1 10 4 10 6 0 11 -4 11 -10z
m140 0 c0 -5 -4 -10 -10 -10 -5 0 -10 5 -10 10 0 6 5 10 10 10 6 0 10 -4 10
-10z m270 0 c0 -5 -7 -10 -16 -10 -8 0 -12 5 -9 10 3 6 10 10 16 10 5 0 9 -4
9 -10z m130 -10 c0 -5 -2 -10 -4 -10 -3 0 -8 5 -11 10 -3 6 -1 10 4 10 6 0 11
-4 11 -10z m-3490 -10 c0 -5 -4 -10 -10 -10 -5 0 -10 5 -10 10 0 6 5 10 10 10
6 0 10 -4 10 -10z m3620 0 c0 -5 -4 -10 -10 -10 -5 0 -10 5 -10 10 0 6 5 10
10 10 6 0 10 -4 10 -10z m-3480 -10 c0 -5 -4 -10 -10 -10 -5 0 -10 5 -10 10 0
6 5 10 10 10 6 0 10 -4 10 -10z m635 0 c3 -5 -1 -10 -9 -10 -9 0 -16 5 -16 10
0 6 4 10 9 10 6 0 13 -4 16 -10z m-105 -10 c0 -5 -4 -10 -10 -10 -5 0 -10 5
-10 10 0 6 5 10 10 10 6 0 10 -4 10 -10z m270 0 c0 -5 -5 -10 -11 -10 -5 0 -7
5 -4 10 3 6 8 10 11 10 2 0 4 -4 4 -10z m470 0 c0 -5 -5 -10 -11 -10 -5 0 -7
5 -4 10 3 6 8 10 11 10 2 0 4 -4 4 -10z m120 0 c0 -5 -4 -10 -10 -10 -5 0 -10
5 -10 10 0 6 5 10 10 10 6 0 10 -4 10 -10z m1635 0 c3 -5 1 -10 -4 -10 -6 0
-11 5 -11 10 0 6 2 10 4 10 3 0 8 -4 11 -10z m-3380 -10 c3 -5 -1 -10 -10 -10
-9 0 -13 5 -10 10 3 6 8 10 10 10 2 0 7 -4 10 -10z m2965 0 c0 -5 -2 -10 -4
-10 -3 0 -8 5 -11 10 -3 6 -1 10 4 10 6 0 11 -4 11 -10z m135 0 c3 -5 -1 -10
-10 -10 -9 0 -13 5 -10 10 3 6 8 10 10 10 2 0 7 -4 10 -10z m-2475 -10 c0 -5
-2 -10 -4 -10 -3 0 -8 5 -11 10 -3 6 -1 10 4 10 6 0 11 -4 11 -10z m140 0 c0
-5 -4 -10 -10 -10 -5 0 -10 5 -10 10 0 6 5 10 10 10 6 0 10 -4 10 -10z m590 0
c0 -5 -4 -10 -10 -10 -5 0 -10 5 -10 10 0 6 5 10 10 10 6 0 10 -4 10 -10z
m2145 0 c3 -5 1 -10 -4 -10 -6 0 -11 5 -11 10 0 6 2 10 4 10 3 0 8 -4 11 -10z
m140 0 c3 -5 1 -10 -4 -10 -6 0 -11 5 -11 10 0 6 2 10 4 10 3 0 8 -4 11 -10z
m-3495 -14 c0 -11 -19 -15 -25 -6 -3 5 1 10 9 10 9 0 16 -2 16 -4z m1700 -6
c0 -5 -4 -10 -10 -10 -5 0 -10 5 -10 10 0 6 5 10 10 10 6 0 10 -4 10 -10z
m1920 0 c0 -5 -2 -10 -4 -10 -3 0 -8 5 -11 10 -3 6 -1 10 4 10 6 0 11 -4 11
-10z m-3486 -21 c-3 -5 -10 -7 -15 -3 -5 3 -7 10 -3 15 3 5 10 7 15 3 5 -3 7
-10 3 -15z m136 11 c0 -5 -4 -10 -10 -10 -5 0 -10 5 -10 10 0 6 5 10 10 10 6
0 10 -4 10 -10z m507 -12 c-3 -8 -6 -5 -6 6 -1 11 2 17 5 13 3 -3 4 -12 1 -19z
m533 12 c0 -5 -4 -10 -10 -10 -5 0 -10 5 -10 10 0 6 5 10 10 10 6 0 10 -4 10
-10z m-405 -10 c3 -5 1 -10 -4 -10 -6 0 -11 5 -11 10 0 6 2 10 4 10 3 0 8 -4
11 -10z m2125 0 c0 -5 -5 -10 -11 -10 -5 0 -7 5 -4 10 3 6 8 10 11 10 2 0 4
-4 4 -10z m140 0 c0 -5 -4 -10 -10 -10 -5 0 -10 5 -10 10 0 6 5 10 10 10 6 0
10 -4 10 -10z m-2760 -10 c0 -5 -4 -10 -10 -10 -5 0 -10 5 -10 10 0 6 5 10 10
10 6 0 10 -4 10 -10z m670 0 c0 -5 -4 -10 -9 -10 -6 0 -13 5 -16 10 -3 6 1 10
9 10 9 0 16 -4 16 -10z m480 0 c0 -5 -4 -10 -10 -10 -5 0 -10 5 -10 10 0 6 5
10 10 10 6 0 10 -4 10 -10z m1330 0 c0 -5 -4 -10 -10 -10 -5 0 -10 5 -10 10 0
6 5 10 10 10 6 0 10 -4 10 -10z m-2970 -10 c0 -5 -5 -10 -11 -10 -5 0 -7 5 -4
10 3 6 8 10 11 10 2 0 4 -4 4 -10z m630 0 c0 -5 -4 -10 -10 -10 -5 0 -10 5
-10 10 0 6 5 10 10 10 6 0 10 -4 10 -10z m130 0 c0 -5 -4 -10 -10 -10 -5 0
-10 5 -10 10 0 6 5 10 10 10 6 0 10 -4 10 -10z m2750 0 c0 -5 -4 -10 -10 -10
-5 0 -10 5 -10 10 0 6 5 10 10 10 6 0 10 -4 10 -10z m270 0 c0 -5 -4 -10 -10
-10 -5 0 -10 5 -10 10 0 6 5 10 10 10 6 0 10 -4 10 -10z m-2520 -26 c0 -8 -5
-12 -10 -9 -6 4 -8 11 -5 16 9 14 15 11 15 -7z m2380 6 c0 -5 -2 -10 -4 -10
-3 0 -8 5 -11 10 -3 6 -1 10 4 10 6 0 11 -4 11 -10z m-3500 -10 c0 -5 -4 -10
-10 -10 -5 0 -10 5 -10 10 0 6 5 10 10 10 6 0 10 -4 10 -10z m140 -10 c0 -5
-4 -10 -10 -10 -5 0 -10 5 -10 10 0 6 5 10 10 10 6 0 10 -4 10 -10z m630 0 c0
-5 -4 -10 -10 -10 -5 0 -10 5 -10 10 0 6 5 10 10 10 6 0 10 -4 10 -10z m437
-12 c-3 -8 -6 -5 -6 6 -1 11 2 17 5 13 3 -3 4 -12 1 -19z m123 18 c0 -11 -19
-15 -25 -6 -3 5 1 10 9 10 9 0 16 -2 16 -4z m1170 -6 c0 -5 -2 -10 -4 -10 -3
0 -8 5 -11 10 -3 6 -1 10 4 10 6 0 11 -4 11 -10z m404 -11 c-3 -5 -10 -7 -15
-3 -5 3 -7 10 -3 15 3 5 10 7 15 3 5 -3 7 -10 3 -15z m146 11 c0 -5 -4 -10 -9
-10 -6 0 -13 5 -16 10 -3 6 1 10 9 10 9 0 16 -4 16 -10z m-2780 -10 c0 -5 -2
-10 -4 -10 -3 0 -8 5 -11 10 -3 6 -1 10 4 10 6 0 11 -4 11 -10z m410 0 c0 -5
-4 -10 -10 -10 -5 0 -10 5 -10 10 0 6 5 10 10 10 6 0 10 -4 10 -10z m404 -11
c-3 -5 -10 -7 -15 -3 -5 3 -7 10 -3 15 3 5 10 7 15 3 5 -3 7 -10 3 -15z m360
0 c-3 -5 -10 -7 -15 -3 -5 3 -7 10 -3 15 3 5 10 7 15 3 5 -3 7 -10 3 -15z
m136 11 c0 -5 -4 -10 -10 -10 -5 0 -10 5 -10 10 0 6 5 10 10 10 6 0 10 -4 10
-10z m1595 0 c3 -5 1 -10 -4 -10 -6 0 -11 5 -11 10 0 6 2 10 4 10 3 0 8 -4 11
-10z m-3385 -4 c0 -3 -4 -8 -10 -11 -5 -3 -10 -1 -10 4 0 6 5 11 10 11 6 0 10
-2 10 -4z m620 -6 c0 -5 -4 -10 -10 -10 -5 0 -10 5 -10 10 0 6 5 10 10 10 6 0
10 -4 10 -10z m144 -11 c-3 -5 -10 -7 -15 -3 -5 3 -7 10 -3 15 3 5 10 7 15 3
5 -3 7 -10 3 -15z m1396 11 c0 -5 -4 -10 -10 -10 -5 0 -10 5 -10 10 0 6 5 10
10 10 6 0 10 -4 10 -10z m1620 0 c0 -5 -5 -10 -11 -10 -5 0 -7 5 -4 10 3 6 8
10 11 10 2 0 4 -4 4 -10z m-270 -10 c0 -5 -4 -10 -10 -10 -5 0 -10 5 -10 10 0
6 5 10 10 10 6 0 10 -4 10 -10z m135 0 c3 -5 1 -10 -4 -10 -6 0 -11 5 -11 10
0 6 2 10 4 10 3 0 8 -4 11 -10z m265 0 c0 -5 -4 -10 -10 -10 -5 0 -10 5 -10
10 0 6 5 10 10 10 6 0 10 -4 10 -10z m-3770 -10 c0 -5 -4 -10 -10 -10 -5 0
-10 5 -10 10 0 6 5 10 10 10 6 0 10 -4 10 -10z m1660 -10 c0 -5 -4 -10 -10
-10 -5 0 -10 5 -10 10 0 6 5 10 10 10 6 0 10 -4 10 -10z m840 0 c0 -5 -4 -10
-10 -10 -5 0 -10 5 -10 10 0 6 5 10 10 10 6 0 10 -4 10 -10z m-2360 -10 c0 -5
-7 -10 -16 -10 -8 0 -12 5 -9 10 3 6 10 10 16 10 5 0 9 -4 9 -10z m130 0 c0
-5 -4 -10 -10 -10 -5 0 -10 5 -10 10 0 6 5 10 10 10 6 0 10 -4 10 -10z m530
-5 c0 -8 -4 -15 -10 -15 -5 0 -10 7 -10 15 0 8 5 15 10 15 6 0 10 -7 10 -15z
m101 -8 c-13 -13 -26 -3 -16 12 3 6 11 8 17 5 6 -4 6 -10 -1 -17z m439 7 c0
-8 -5 -12 -10 -9 -6 4 -8 11 -5 16 9 14 15 11 15 -7z m1710 6 c0 -5 -4 -10
-10 -10 -5 0 -10 5 -10 10 0 6 5 10 10 10 6 0 10 -4 10 -10z m-3210 -10 c0 -5
-4 -10 -10 -10 -5 0 -10 5 -10 10 0 6 5 10 10 10 6 0 10 -4 10 -10z m1380 2
c0 -13 -12 -22 -22 -16 -10 6 -1 24 13 24 5 0 9 -4 9 -8z m1150 -2 c0 -5 -7
-10 -16 -10 -8 0 -12 5 -9 10 3 6 10 10 16 10 5 0 9 -4 9 -10z m540 0 c0 -5
-4 -10 -10 -10 -5 0 -10 5 -10 10 0 6 5 10 10 10 6 0 10 -4 10 -10z m270 0 c0
-5 -4 -10 -10 -10 -5 0 -10 5 -10 10 0 6 5 10 10 10 6 0 10 -4 10 -10z m535 0
c3 -5 1 -10 -4 -10 -6 0 -11 5 -11 10 0 6 2 10 4 10 3 0 8 -4 11 -10z m-3795
-10 c0 -5 -5 -10 -11 -10 -5 0 -7 5 -4 10 3 6 8 10 11 10 2 0 4 -4 4 -10z
m490 0 c0 -5 -4 -10 -10 -10 -5 0 -10 5 -10 10 0 6 5 10 10 10 6 0 10 -4 10
-10z m140 1 c0 -6 -4 -13 -10 -16 -5 -3 -10 1 -10 9 0 9 5 16 10 16 6 0 10 -4
10 -9z m140 -1 c0 -5 -7 -10 -15 -10 -8 0 -15 5 -15 10 0 6 7 10 15 10 8 0 15
-4 15 -10z m900 0 c0 -5 -4 -10 -10 -10 -5 0 -10 5 -10 10 0 6 5 10 10 10 6 0
10 -4 10 -10z m1720 -4 c0 -3 -4 -8 -10 -11 -5 -3 -10 -1 -10 4 0 6 5 11 10
11 6 0 10 -2 10 -4z m130 -6 c0 -5 -5 -10 -11 -10 -5 0 -7 5 -4 10 3 6 8 10
11 10 2 0 4 -4 4 -10z m140 0 c0 -5 -4 -10 -10 -10 -5 0 -10 5 -10 10 0 6 5
10 10 10 6 0 10 -4 10 -10z m-3525 -20 c3 -5 1 -10 -4 -10 -6 0 -11 5 -11 10
0 6 2 10 4 10 3 0 8 -4 11 -10z m2375 0 c0 -5 -4 -10 -10 -10 -5 0 -10 5 -10
10 0 6 5 10 10 10 6 0 10 -4 10 -10z m-2234 -27 c-10 -10 -19 5 -10 18 6 11 8
11 12 0 2 -7 1 -15 -2 -18z m654 17 c0 -5 -4 -10 -10 -10 -5 0 -10 5 -10 10 0
6 5 10 10 10 6 0 10 -4 10 -10z m2134 -11 c-3 -5 -10 -7 -15 -3 -5 3 -7 10 -3
15 3 5 10 7 15 3 5 -3 7 -10 3 -15z m-1700 -10 c-3 -5 -10 -7 -15 -3 -5 3 -7
10 -3 15 3 5 10 7 15 3 5 -3 7 -10 3 -15z m126 11 c0 -5 -4 -10 -10 -10 -5 0
-10 5 -10 10 0 6 5 10 10 10 6 0 10 -4 10 -10z m890 0 c0 -5 -4 -10 -10 -10
-5 0 -10 5 -10 10 0 6 5 10 10 10 6 0 10 -4 10 -10z m550 6 c0 -11 -19 -15
-25 -6 -3 5 1 10 9 10 9 0 16 -2 16 -4z m270 -6 c0 -5 -2 -10 -4 -10 -3 0 -8
5 -11 10 -3 6 -1 10 4 10 6 0 11 -4 11 -10z m530 0 c0 -5 -4 -10 -10 -10 -5 0
-10 5 -10 10 0 6 5 10 10 10 6 0 10 -4 10 -10z m-3320 -10 c0 -5 -2 -10 -4
-10 -3 0 -8 5 -11 10 -3 6 -1 10 4 10 6 0 11 -4 11 -10z m140 0 c0 -5 -4 -10
-10 -10 -5 0 -10 5 -10 10 0 6 5 10 10 10 6 0 10 -4 10 -10z m275 0 c-3 -5
-11 -10 -16 -10 -6 0 -7 5 -4 10 3 6 11 10 16 10 6 0 7 -4 4 -10z m225 0 c0
-5 -4 -10 -9 -10 -6 0 -13 5 -16 10 -3 6 1 10 9 10 9 0 16 -4 16 -10z m180 0
c0 -5 -4 -10 -10 -10 -5 0 -10 5 -10 10 0 6 5 10 10 10 6 0 10 -4 10 -10z
m385 0 c3 -5 1 -10 -4 -10 -6 0 -11 5 -11 10 0 6 2 10 4 10 3 0 8 -4 11 -10z
m165 0 c0 -5 -4 -10 -10 -10 -5 0 -10 5 -10 10 0 6 5 10 10 10 6 0 10 -4 10
-10z m1545 0 c3 -5 1 -10 -4 -10 -6 0 -11 5 -11 10 0 6 2 10 4 10 3 0 8 -4 11
-10z m-2625 -10 c0 -5 -7 -10 -15 -10 -8 0 -15 5 -15 10 0 6 7 10 15 10 8 0
15 -4 15 -10z m1365 0 c3 -5 1 -10 -4 -10 -6 0 -11 5 -11 10 0 6 2 10 4 10 3
0 8 -4 11 -10z m1389 -11 c-3 -5 -10 -7 -15 -3 -5 3 -7 10 -3 15 3 5 10 7 15
3 5 -3 7 -10 3 -15z m-3384 1 c0 -5 -4 -10 -10 -10 -5 0 -10 5 -10 10 0 6 5
10 10 10 6 0 10 -4 10 -10z m3530 6 c0 -11 -19 -15 -25 -6 -3 5 1 10 9 10 9 0
16 -2 16 -4z m-1160 -16 c0 -5 -4 -10 -10 -10 -5 0 -10 5 -10 10 0 6 5 10 10
10 6 0 10 -4 10 -10z m-1450 -10 c0 -5 -4 -10 -10 -10 -5 0 -10 5 -10 10 0 6
5 10 10 10 6 0 10 -4 10 -10z m1590 6 c0 -3 -4 -8 -10 -11 -5 -3 -10 -1 -10 4
0 6 5 11 10 11 6 0 10 -2 10 -4z m280 -6 c0 -5 -4 -10 -10 -10 -5 0 -10 5 -10
10 0 6 5 10 10 10 6 0 10 -4 10 -10z m280 0 c0 -5 -4 -10 -10 -10 -5 0 -10 5
-10 10 0 6 5 10 10 10 6 0 10 -4 10 -10z m-2930 -4 c0 -11 -19 -15 -25 -6 -3
5 1 10 9 10 9 0 16 -2 16 -4z m130 -6 c0 -5 -4 -10 -10 -10 -5 0 -10 5 -10 10
0 6 5 10 10 10 6 0 10 -4 10 -10z m1970 0 c0 -5 -4 -10 -10 -10 -5 0 -10 5
-10 10 0 6 5 10 10 10 6 0 10 -4 10 -10z m690 0 c0 -5 -4 -10 -10 -10 -5 0
-10 5 -10 10 0 6 5 10 10 10 6 0 10 -4 10 -10z m670 0 c0 -5 -7 -10 -16 -10
-8 0 -12 5 -9 10 3 6 10 10 16 10 5 0 9 -4 9 -10z"/>
<path d="M1470 2650 c-14 -10 -22 -21 -19 -24 3 -3 16 5 29 19 28 30 24 32
-10 5z"/>
<path d="M2398 2523 c7 -3 16 -2 19 1 4 3 -2 6 -13 5 -11 0 -14 -3 -6 -6z"/>
<path d="M2756 2494 c-4 -9 -4 -19 -1 -22 2 -3 7 3 11 12 4 9 4 19 1 22 -2 3
-7 -3 -11 -12z"/>
<path d="M2550 2210 c0 -5 7 -10 15 -10 8 0 15 5 15 10 0 6 -7 10 -15 10 -8 0
-15 -4 -15 -10z"/>
<path d="M2510 2200 c-9 -6 -10 -10 -3 -10 6 0 15 5 18 10 8 12 4 12 -15 0z"/>
<path d="M1820 3960 c0 -5 7 -7 15 -4 8 4 15 8 15 10 0 2 -7 4 -15 4 -8 0 -15
-4 -15 -10z"/>
<path d="M1785 3950 c-3 -6 1 -7 9 -4 18 7 21 14 7 14 -6 0 -13 -4 -16 -10z"/>
<path d="M1053 2755 c0 -8 4 -12 9 -9 5 3 6 10 3 15 -9 13 -12 11 -12 -6z"/>
<path d="M1053 2685 c1 -33 2 -35 14 -19 15 21 14 45 -4 51 -7 3 -11 -9 -10
-32z"/>
<path d="M977 2423 c11 -32 16 -36 25 -19 11 19 3 36 -17 36 -9 0 -12 -6 -8
-17z"/>
<path d="M1922 2104 c-22 -15 -31 -54 -11 -54 16 0 78 53 73 62 -8 13 -38 9
-62 -8z"/>
<path d="M2037 1989 c-7 -26 4 -30 26 -9 17 17 17 18 -2 23 -13 3 -21 -1 -24
-14z"/>
<path d="M1709 1734 c-18 -21 -9 -24 44 -12 56 11 56 14 5 21 -25 3 -41 0 -49
-9z"/>
<path d="M1786 1253 c-14 -20 -16 -27 -6 -36 10 -9 12 -8 7 6 -4 10 -3 16 2
13 5 -3 11 4 14 16 8 30 5 30 -17 1z"/>
<path d="M1812 1238 c-16 -16 -15 -33 1 -19 8 6 17 8 20 4 4 -3 7 1 7 10 0 20
-11 22 -28 5z"/>
<path d="M1730 1196 c0 -2 7 -7 16 -10 8 -3 12 -2 9 4 -6 10 -25 14 -25 6z"/>
</g>
</svg>
